PathFileType	4	(X/Y/Z)	Patient4_TMGait_0pt8_01_right_43.trc.trc
DataRate	CameraRate	NumFrames	NumMarkers	Units	OrigDataRate	OrigDataStartFrame	OrigNumFrames
85.365853658537	85.365853658537	5	33	mm	85.365853658537	53	       141
Frame#	Time	Sacral			L.Shoulder			Chest			R.Shoulder			Neck			R.ASIS			L.ASIS			R.Thigh.Superior			R.Thigh.Lateral			R.Thigh.Inferior			R.Patella			L.Thigh.Superior			L.Thigh.Lateral			L.Thigh.Inferior			L.Patella			L.Shank.Superior			L.Shank.Lateral			L.Shank.Inferior			R.Shank.Superior			R.Shank.Lateral			R.Shank.Inferior			R.Heel			R.Midfoot.Superior			R.Midfoot.Lateral			R.Toe			L.Heel			L.Midfoot.Lateral			L.Midfoot.Superior			L.Toe			L.Elbow			L.Wrist			R.Elbow			R.Wrist			
		X1	Y1	Z1	X2	Y2	Z2	X3	Y3	Z3	X4	Y4	Z4	X5	Y5	Z5	X6	Y6	Z6	X7	Y7	Z7	X8	Y8	Z8	X9	Y9	Z9	X10	Y10	Z10	X11	Y11	Z11	X12	Y12	Z12	X13	Y13	Z13	X14	Y14	Z14	X15	Y15	Z15	X16	Y16	Z16	X17	Y17	Z17	X18	Y18	Z18	X19	Y19	Z19	X20	Y20	Z20	X21	Y21	Z21	X22	Y22	Z22	X23	Y23	Z23	X24	Y24	Z24	X25	Y25	Z25	X26	Y26	Z26	X27	Y27	Z27	X28	Y28	Z28	X29	Y29	Z29	X30	Y30	Z30	X31	Y31	Z31	X32	Y32	Z32	X33	Y33	Z33	

53	48.899142857143	924.392229331317	1011.450527228648	529.334543339352	1078.045605892678	1438.733158100475	334.417331579476	1203.415209929870	1366.335820157653	478.139555123175	1147.657282799861	1436.215059646359	664.508600696233	1087.857100948031	1498.184015963803	490.446106504242	1159.885979606641	946.587009342703	623.876252986146	1119.850949677166	965.813051158063	352.094120409426	1179.062948213820	739.162842045433	595.686318656090	1087.252862819199	636.879842192218	659.158426459708	1154.596267631970	577.971288288934	577.670028961649	1146.033408573748	494.044299816783	582.397916241766	1216.838246581345	801.347050183230	380.716983412625	1184.534687343377	668.955133813205	303.029939260564	1297.673662559440	618.287069017295	356.823343828058	1321.132249265395	531.499195114933	348.806245429150	1266.859564965072	454.638733179886	347.448485838434	1134.002934142817	385.021619984287	306.601564038515	1149.666839311961	256.594140496174	363.796867187194	1119.463369552869	407.073768346889	588.102649256964	1049.297926641164	301.614804046914	647.331695974793	1093.170728486943	208.290052714296	581.724396893966	960.818698203422	43.689753420968	546.539568496750	1132.398676275815	97.977753459590	585.617524549890	1043.710463178850	37.575864212550	622.321756222504	1251.749751926351	44.639024880468	613.337495066037	977.724132826188	157.459828674650	412.472029254368	1038.727427555250	122.002216681747	329.626883028237	1141.693223812068	149.973913311375	346.385023001505	1237.082682358451	54.646683700389	314.487982378262	1018.776930720031	1083.850620545586	239.615790841229	1125.173958255336	844.647790393359	239.911559532852	1195.913546132943	1089.092691185665	784.811680299278	1378.312596730686	902.807063460059	771.670406989187	
54	48.910857142857	923.457014869339	1011.737981172035	530.709100378017	1076.847758334496	1438.228342812025	334.928398563610	1202.966645975823	1365.991273456527	478.001556230188	1148.534598338967	1436.274787111162	664.647242862837	1087.699994554153	1497.957722145139	490.937500819938	1159.115815653038	946.223557361433	624.103088265729	1117.955520807112	965.892412520285	352.328863049984	1175.244545112302	738.132371935741	595.801494568605	1081.915858651975	636.920068497659	659.676240301109	1147.935736798632	577.061935406091	578.270935244877	1138.290258260701	493.528984976340	582.992596857594	1215.744814967346	803.236845892963	381.426439075591	1184.872429576250	670.356190779645	303.507188641288	1298.045355153451	620.761781933431	357.242143528325	1323.088439829944	535.718074669639	349.341031781135	1273.314489734296	457.414224577300	347.601991279509	1146.172072013377	378.979711577680	305.816714363879	1170.811292163702	251.622916826494	362.520568760765	1111.199368092284	406.954672058042	588.515089428615	1040.705969256959	301.682720078282	647.718822403936	1084.205086200857	208.273683990937	581.916176808789	951.467947443470	43.752710206127	546.614123147859	1123.004027255950	97.924941004850	585.692914630574	1034.302736366845	37.610545386505	622.306681901137	1242.347631567456	44.341950381759	613.393112775653	1006.727801973711	140.461625183473	410.176656256284	1070.104848439296	109.813488309128	327.397143186140	1170.717605089664	144.715289477290	344.619280867717	1272.480617465896	56.439675177377	312.656924009718	1013.250649114950	1083.346137365010	242.539511765390	1098.507553830739	835.959845133269	242.395967632563	1208.426811167743	1091.199323285524	784.310326618897	1402.718548446274	917.884441884008	768.101792141366	
55	48.922571428571	922.648646610168	1011.938664425604	531.900592980763	1075.893477852790	1437.588516376922	335.285496209595	1202.660677596057	1365.493227381865	477.790007099862	1149.455269698226	1436.261194619856	664.636992894487	1087.661397681419	1497.587910483133	491.332415534400	1158.348285888042	945.732836559403	624.322455900350	1116.301392804541	965.722420226961	352.479658616831	1171.423519361992	737.016878523503	596.058132614262	1076.534038665116	636.906935327631	660.218992706097	1141.339631972784	576.141238809256	578.930833872335	1130.633554677316	492.982946486174	583.648174013077	1214.300603019818	804.208641047103	382.005861233270	1184.226063114695	670.935223762060	303.970052344025	1297.117751362642	621.897563723755	357.829395774779	1323.418938077096	538.904444811752	350.149212669464	1278.403227916038	459.683464893681	347.847853002129	1158.110367514802	372.483313544330	304.794643269916	1192.022722673204	246.980415691492	361.068907956859	1102.965279428908	406.829245510845	588.978851029122	1032.110860310172	301.759259448029	648.137888771188	1075.235923218022	208.268727789686	582.153525235654	942.121299418776	43.817811443355	546.707517916687	1113.607107820115	97.880835592020	585.793501545461	1024.889123984093	37.640740390361	622.291674952582	1232.946815054533	44.048023192229	613.450704633041	1037.132323830952	123.875998330319	407.412978731748	1102.779146923147	98.372329595599	324.867637060139	1200.357492139476	140.301377219931	342.710332408301	1308.245206772044	59.802991522971	311.010051047605	1007.554336042705	1083.003587322670	245.030769377665	1072.091241401405	829.610291903234	244.709725506610	1220.545784689353	1093.662053991574	783.524162031164	1425.890506496202	934.247250041301	764.123784281922	
56	48.934285714286	921.988602346278	1012.054475087251	532.890357447297	1075.184297428617	1436.832590176447	335.483508826524	1202.499335703624	1364.850637739223	477.500346850461	1150.408740385556	1436.172811002761	664.472843436595	1087.736571416990	1497.080376175030	491.627389382391	1157.610212827771	945.123477543602	624.548710211120	1114.926524992729	965.291079170424	352.559720588781	1167.637612760103	735.820119069102	596.452289384976	1071.148362030011	636.840154182217	660.778998686557	1134.835477467671	575.209562444425	579.628980736481	1123.091680714750	492.404218166486	584.335282113630	1212.527114338698	804.194879442727	382.453413471144	1182.591269925270	670.651219466935	304.388100948185	1294.922103870313	621.651046928717	358.580604325549	1322.180646014477	541.023416880294	351.238680819907	1282.113739286221	461.466146114027	348.184534206755	1169.760828553043	365.747777311403	303.556342034756	1213.078158253583	242.942391624229	359.505486613684	1094.792474225535	406.691453351203	589.480653837941	1023.543478440250	301.845786659784	648.588439407053	1066.278033149348	208.270332400831	582.429330021214	932.769996778320	43.885051123134	546.814605650497	1104.210227054691	97.844607294622	585.915536737004	1015.468653929025	37.665806251985	622.280276066186	1223.550720493022	43.762666415807	613.514324858233	1068.626743723394	108.231600922157	404.292118241733	1136.421342701487	88.104149301480	322.164018539768	1230.290422601663	137.043729972166	340.748011890542	1343.932983838397	64.964116833561	309.692473230800	1001.580417098350	1082.899863781514	247.079326888470	1046.332644665878	825.501571406451	246.859285719113	1232.257577993007	1096.445428380399	782.459222077165	1447.691590207736	951.736861169969	759.787547144381	
57	48.946000000000	921.492530603360	1012.084166669219	533.662216371995	1074.716911925733	1435.977805588130	335.518820474227	1202.478690978117	1364.076342763449	477.131958295636	1151.373821944872	1436.008770444571	664.153068383038	1087.911189994596	1496.443335854574	491.811249539083	1156.931944887593	944.402364551634	624.785535768874	1113.857689284966	964.598304685238	352.580099394565	1163.933574597710	734.546286821900	596.960040431301	1065.816633794308	636.718624697437	661.338179895580	1128.458276180961	574.268859298357	580.331427108788	1115.701978003769	491.789920336535	585.015900222352	1210.449430529968	803.163642928596	382.770176768299	1180.004039889964	669.505600562148	304.719911687671	1291.542105729111	620.055953014262	359.474317359509	1319.501987235192	542.097874409373	352.587150975963	1284.483598266691	462.799046958660	348.589433583084	1181.017805388379	358.999342945188	302.152215708214	1233.692444729540	239.738035076639	357.900882838629	1086.723191448198	406.533634817546	589.999970838367	1015.043393042219	301.942842695030	649.066951182307	1057.350413714017	208.271342264539	582.732330629777	923.407251372145	43.955366037586	546.930055389552	1094.815814944474	97.813405525449	586.052009769776	1006.041153881432	37.685170669647	622.275844295133	1214.161239083384	43.489979346547	613.586284806653	1100.748985783807	94.013089437181	400.980178826354	1170.545051468659	79.354265570999	319.446659012491	1260.087324095856	135.165076105562	338.824639687783	1379.003301755615	72.000821440773	308.813134842272	995.251864870601	1083.108236119380	248.685376762145	1021.588017835616	823.443299225735	248.863353316161	1243.554280387312	1099.513913695601	781.121598312894	1468.007124439468	970.163986705525	755.148000830821	
